<svg width="100%" height="100%" viewBox="0 0 1080 1080" version="1.1" xmlns="http://www.w3.org/2000/svg" xmlns:xlink="http://www.w3.org/1999/xlink" xml:space="preserve" style="fill-rule:evenodd;clip-rule:evenodd;stroke-linecap:round;stroke-linejoin:round;stroke-miterlimit:1.5;"><g transform="matrix(1,0,0,1,-3456.31,-2.70089)"><g transform="matrix(1,0,0,1,3456.31,2.70089)"><rect id="tune" x="0" y="0" width="1080" height="1080" style="fill:none;"></rect><g id="tune1"><g id="aj-icon" transform="matrix(1,0,0,1,-11.0484,-1.39478)"><g transform="matrix(1,0,0,1,-1148.44,-15.9652)"><path d="M1294.18,385.46C1292.61,423.665 1250.35,518.165 1221.4,555.288C1211.29,568.254 2177.64,390.85 2177.64,390.85" style="fill:none;stroke:currentColor;stroke-width:75px;"></path></g><g transform="matrix(1,0,0,1,-1137.36,-1.39478)"><path d="M1496.33,676.701C1496.33,676.701 1510.72,272.267 1619.58,160.249C1743.25,33 1719.88,229.419 1688.43,504.613C1668.74,677.01 1663.95,856.678 1688.43,962.166" style="fill:none;stroke:currentColor;stroke-width:75px;"></path></g><g transform="matrix(1.00593,0,0,0.914001,-1200.45,62.6067)"><path d="M1928.73,522.312C1928.73,522.312 1959.64,624.875 1914.2,704.927C1842.17,831.829 1629.4,852.489 1484.73,883.292" style="fill:none;stroke:currentColor;stroke-width:78.04px;"></path></g></g></g></g></g><svg width="100%" height="100%" viewBox="0 0 1080 1080" version="1.1" xmlns="http://www.w3.org/2000/svg" xmlns:xlink="http://www.w3.org/1999/xlink" xml:space="preserve" style="fill-rule:evenodd;clip-rule:evenodd;stroke-linecap:round;stroke-linejoin:round;stroke-miterlimit:1.5;"><g transform="matrix(1,0,0,1,-3456.31,-2.70089)"><g transform="matrix(1,0,0,1,3456.31,2.70089)"><rect id="tune" x="0" y="0" width="1080" height="1080" style="fill:none;"></rect><g id="tune1"><g id="aj-icon" transform="matrix(1,0,0,1,-11.0484,-1.39478)"><g transform="matrix(1,0,0,1,-1148.44,-15.9652)"><path d="M1294.18,385.46C1292.61,423.665 1250.35,518.165 1221.4,555.288C1211.29,568.254 2177.64,390.85 2177.64,390.85" style="fill:none;stroke:currentColor;stroke-width:75px;"></path></g><g transform="matrix(1,0,0,1,-1137.36,-1.39478)"><path d="M1496.33,676.701C1496.33,676.701 1510.72,272.267 1619.58,160.249C1743.25,33 1719.88,229.419 1688.43,504.613C1668.74,677.01 1663.95,856.678 1688.43,962.166" style="fill:none;stroke:currentColor;stroke-width:75px;"></path></g><g transform="matrix(1.00593,0,0,0.914001,-1200.45,62.6067)"><path d="M1928.73,522.312C1928.73,522.312 1959.64,624.875 1914.2,704.927C1842.17,831.829 1629.4,852.489 1484.73,883.292" style="fill:none;stroke:currentColor;stroke-width:78.04px;"></path></g></g></g></g></g></svg></svg>